<svg xmlns="http://www.w3.org/2000/svg" xmlns:xlink="http://www.w3.org/1999/xlink" width="500" zoomAndPan="magnify" viewBox="0 0 375 374.999991" height="500" preserveAspectRatio="xMidYMid meet" version="1.0"><defs><g/><clipPath id="5e8bc75e85"><path d="M 38 185 L 129 185 L 129 367.371094 L 38 367.371094 Z M 38 185 " clip-rule="nonzero"/></clipPath><clipPath id="83b8162946"><path d="M 37.5 6 L 129 6 L 129 189 L 37.5 189 Z M 37.5 6 " clip-rule="nonzero"/></clipPath><clipPath id="b0a80be11f"><path d="M 283 6.121094 L 374.992188 6.121094 L 374.992188 189 L 283 189 Z M 283 6.121094 " clip-rule="nonzero"/></clipPath><clipPath id="398f4d035c"><path d="M 283 186 L 374.992188 186 L 374.992188 369 L 283 369 Z M 283 186 " clip-rule="nonzero"/></clipPath></defs><g clip-path="url(#5e8bc75e85)"><path fill="#ffffff" d="M 38.847656 186.660156 C 40.015625 184.085938 39.207031 185.945312 39.484375 185.371094 L 39.546875 185.367188 L 39.679688 185.363281 L 39.933594 185.355469 L 40.453125 185.335938 L 41.496094 185.304688 L 43.585938 185.328125 C 44.988281 185.359375 46.414062 185.417969 47.785156 185.644531 C 49.160156 185.859375 50.542969 186.117188 51.957031 186.378906 C 53.40625 186.585938 54.679688 187.113281 56.070312 187.503906 C 61.652344 189.09375 66.773438 191.921875 71.804688 195.214844 C 81.558594 202.101562 89.601562 212.113281 94.683594 223.792969 C 97.054688 229.675781 99.074219 235.898438 99.8125 242.367188 C 100.394531 245.589844 100.519531 248.859375 100.59375 252.148438 C 100.691406 253.792969 100.496094 255.421875 100.441406 257.066406 C 100.332031 258.707031 100.285156 260.371094 100.089844 262.007812 C 99.875 263.636719 99.632812 265.273438 99.320312 266.894531 L 98.867188 269.335938 L 98.496094 271.136719 L 97.023438 278.210938 L 95.363281 285.234375 L 93.539062 292.214844 L 93.054688 293.949219 L 92.824219 294.769531 L 92.699219 295.292969 C 92.542969 295.996094 92.300781 296.691406 92.179688 297.390625 C 91.820312 298.78125 91.613281 300.1875 91.367188 301.59375 C 91.125 303 90.960938 304.421875 90.878906 305.855469 C 90.804688 307.289062 90.835938 308.726562 90.800781 310.199219 C 90.800781 313.144531 91.246094 316.101562 91.753906 319.195312 C 91.894531 319.964844 92.042969 320.742188 92.265625 321.496094 L 92.554688 322.65625 C 92.683594 323.03125 92.792969 323.417969 92.890625 323.816406 C 93.074219 324.617188 93.320312 325.394531 93.585938 326.175781 C 93.816406 326.976562 94.128906 327.742188 94.433594 328.523438 C 96.808594 334.84375 100.503906 341.214844 105.863281 347.304688 C 108.535156 350.371094 111.675781 353.273438 115.289062 356.113281 C 118.917969 358.917969 123.035156 361.527344 127.734375 364.199219 L 128.355469 364.550781 C 128.988281 364.910156 129.210938 365.714844 128.851562 366.351562 C 128.613281 366.765625 128.179688 367.003906 127.734375 367.015625 C 117.90625 367.25 107.945312 365.179688 98.96875 360.867188 C 90.027344 356.488281 82.164062 349.914062 76.15625 341.925781 C 70.097656 333.957031 66.085938 324.453125 64.398438 314.558594 C 63.554688 309.605469 63.308594 304.554688 63.660156 299.539062 C 63.84375 297.035156 64.160156 294.539062 64.628906 292.074219 C 65.09375 289.609375 65.730469 287.132812 66.34375 284.859375 L 70.167969 270.949219 L 72.082031 263.992188 L 72.554688 262.257812 L 72.9375 260.570312 L 73.703125 257.199219 C 75.421875 248.125 74.902344 238.722656 72.738281 229.742188 C 70.410156 220.792969 66.074219 212.351562 60.1875 205.144531 L 57.875 202.527344 L 56.71875 201.214844 L 55.457031 200.007812 L 52.914062 197.59375 C 52.046875 196.8125 51.09375 196.132812 50.1875 195.390625 C 48.40625 193.863281 46.402344 192.648438 44.441406 191.355469 C 43.484375 190.671875 42.421875 190.164062 41.390625 189.605469 L 39.832031 188.777344 L 39.050781 188.363281 L 38.46875 188.050781 L 38.320312 187.972656 C 38.5625 187.390625 37.714844 189.242188 38.847656 186.660156 " fill-opacity="1" fill-rule="nonzero"/></g><g clip-path="url(#83b8162946)"><path fill="#ffffff" d="M 127.734375 9.121094 C 123.035156 11.804688 118.921875 14.429688 115.296875 17.242188 C 111.6875 20.089844 108.554688 22.996094 105.890625 26.070312 C 100.546875 32.164062 96.863281 38.527344 94.488281 44.835938 C 94.183594 45.613281 93.875 46.378906 93.644531 47.183594 C 93.378906 47.960938 93.136719 48.738281 92.953125 49.539062 C 92.863281 49.9375 92.726562 50.3125 92.609375 50.6875 L 92.320312 51.847656 C 92.097656 52.605469 91.949219 53.378906 91.8125 54.148438 C 91.316406 57.238281 90.835938 60.179688 90.855469 63.128906 C 90.828125 66.050781 90.871094 68.90625 91.402344 71.722656 C 91.613281 73.128906 91.851562 74.53125 92.199219 75.925781 C 92.292969 76.632812 92.554688 77.320312 92.707031 78.023438 L 92.832031 78.546875 L 93.058594 79.367188 L 93.539062 81.105469 C 94.769531 85.753906 95.953125 90.414062 96.988281 95.117188 L 98.460938 102.191406 L 98.835938 103.996094 L 99.285156 106.433594 C 99.605469 108.054688 99.800781 109.699219 100.039062 111.324219 C 100.234375 112.957031 100.28125 114.617188 100.386719 116.257812 C 100.445312 117.902344 100.640625 119.53125 100.542969 121.175781 C 100.472656 124.460938 100.316406 127.730469 99.75 130.945312 C 99.015625 137.417969 96.972656 143.628906 94.621094 149.507812 C 89.535156 161.179688 81.5 171.179688 71.757812 178.066406 C 66.734375 181.359375 61.621094 184.191406 56.046875 185.785156 C 50.640625 187.578125 44.925781 188.242188 39.421875 187.945312 L 38.785156 187.914062 C 38.046875 187.871094 37.480469 187.242188 37.519531 186.503906 C 37.546875 186.003906 37.851562 185.578125 38.273438 185.371094 C 46.753906 181.273438 54.261719 175.351562 60.191406 168.175781 C 66.074219 160.96875 70.414062 152.53125 72.742188 143.578125 C 74.910156 134.597656 75.417969 125.195312 73.707031 116.121094 L 72.9375 112.746094 L 72.558594 111.0625 L 72.082031 109.324219 L 70.167969 102.371094 L 66.34375 88.460938 C 65.722656 86.1875 65.09375 83.707031 64.625 81.246094 C 64.15625 78.78125 63.839844 76.285156 63.65625 73.777344 C 63.304688 68.765625 63.550781 63.710938 64.394531 58.761719 C 66.085938 48.871094 70.089844 39.359375 76.152344 31.390625 C 82.160156 23.398438 90.027344 16.832031 98.96875 12.449219 C 107.945312 8.136719 117.90625 6.066406 127.734375 6.304688 C 128.460938 6.320312 129.039062 6.925781 129.019531 7.652344 C 129.011719 8.128906 128.742188 8.542969 128.359375 8.761719 L 127.734375 9.121094 " fill-opacity="1" fill-rule="nonzero"/></g><g clip-path="url(#b0a80be11f)"><path fill="#ffffff" d="M 373.640625 187.511719 C 372.464844 190.097656 373.277344 188.230469 372.996094 188.808594 L 372.933594 188.8125 L 372.546875 188.824219 L 372.027344 188.839844 L 370.976562 188.875 L 368.878906 188.851562 C 367.46875 188.820312 366.039062 188.757812 364.660156 188.53125 C 363.28125 188.316406 361.890625 188.058594 360.46875 187.796875 C 359.011719 187.585938 357.734375 187.058594 356.335938 186.664062 C 350.730469 185.070312 345.585938 182.226562 340.53125 178.917969 C 330.730469 172 322.648438 161.941406 317.546875 150.207031 C 315.164062 144.300781 313.136719 138.046875 312.394531 131.546875 C 311.808594 128.3125 311.683594 125.027344 311.609375 121.722656 C 311.511719 120.070312 311.707031 118.433594 311.761719 116.78125 C 311.871094 115.132812 311.917969 113.460938 312.113281 111.820312 C 312.332031 110.183594 312.574219 108.539062 312.886719 106.90625 L 313.34375 104.457031 L 313.71875 102.644531 L 315.195312 95.539062 L 316.863281 88.484375 L 318.695312 81.472656 L 319.183594 79.730469 L 319.414062 78.90625 L 319.539062 78.378906 C 319.695312 77.671875 319.941406 76.976562 320.0625 76.273438 C 320.421875 74.875 320.628906 73.460938 320.878906 72.050781 C 321.121094 70.636719 321.289062 69.207031 321.367188 67.769531 C 321.441406 66.328125 321.410156 64.882812 321.445312 63.40625 C 321.445312 60.445312 321 57.472656 320.488281 54.367188 C 320.347656 53.59375 320.199219 52.8125 319.976562 52.054688 L 319.683594 50.890625 C 319.554688 50.515625 319.445312 50.125 319.347656 49.726562 C 319.164062 48.921875 318.917969 48.140625 318.648438 47.355469 C 318.417969 46.550781 318.105469 45.78125 317.796875 44.996094 C 315.410156 38.648438 311.699219 32.246094 306.316406 26.128906 C 303.628906 23.046875 300.476562 20.132812 296.84375 17.28125 C 293.199219 14.460938 289.066406 11.839844 284.34375 9.15625 L 283.71875 8.804688 C 283.085938 8.441406 282.859375 7.632812 283.222656 6.996094 C 283.460938 6.578125 283.894531 6.339844 284.34375 6.328125 C 294.21875 6.089844 304.222656 8.171875 313.238281 12.503906 C 322.222656 16.902344 330.121094 23.503906 336.160156 31.53125 C 342.242188 39.539062 346.277344 49.085938 347.972656 59.027344 C 348.816406 64 349.066406 69.078125 348.710938 74.113281 C 348.527344 76.628906 348.210938 79.136719 347.738281 81.613281 C 347.269531 84.085938 346.632812 86.574219 346.019531 88.863281 L 342.175781 102.835938 L 340.25 109.820312 L 339.777344 111.566406 L 339.394531 113.261719 L 338.621094 116.648438 C 336.898438 125.765625 337.417969 135.210938 339.589844 144.230469 C 341.933594 153.222656 346.285156 161.703125 352.199219 168.941406 L 354.523438 171.570312 L 355.683594 172.890625 L 356.953125 174.101562 L 359.507812 176.527344 C 360.378906 177.3125 361.335938 177.996094 362.246094 178.738281 C 364.035156 180.273438 366.050781 181.496094 368.019531 182.792969 C 368.980469 183.484375 370.046875 183.992188 371.085938 184.554688 L 372.652344 185.386719 L 373.433594 185.800781 L 374.019531 186.113281 L 374.167969 186.195312 C 373.925781 186.777344 374.773438 184.917969 373.640625 187.511719 " fill-opacity="1" fill-rule="nonzero"/></g><g clip-path="url(#398f4d035c)"><path fill="#ffffff" d="M 284.34375 365.867188 C 289.066406 363.171875 293.195312 360.535156 296.835938 357.707031 C 300.460938 354.851562 303.613281 351.929688 306.289062 348.839844 C 311.65625 342.71875 315.355469 336.324219 317.742188 329.988281 C 318.050781 329.207031 318.359375 328.4375 318.589844 327.632812 C 318.859375 326.847656 319.101562 326.066406 319.285156 325.261719 C 319.375 324.859375 319.511719 324.488281 319.632812 324.109375 L 319.921875 322.945312 C 320.144531 322.183594 320.292969 321.40625 320.429688 320.632812 C 320.929688 317.53125 321.414062 314.570312 321.390625 311.613281 C 321.421875 308.675781 321.375 305.804688 320.839844 302.980469 C 320.628906 301.566406 320.390625 300.15625 320.042969 298.757812 C 319.945312 298.046875 319.683594 297.355469 319.53125 296.648438 L 319.40625 296.121094 L 319.179688 295.300781 L 318.695312 293.550781 C 317.460938 288.882812 316.273438 284.199219 315.230469 279.476562 L 313.75 272.367188 L 313.375 270.558594 L 312.921875 268.109375 C 312.601562 266.480469 312.40625 264.828125 312.167969 263.195312 C 311.96875 261.550781 311.921875 259.886719 311.816406 258.238281 C 311.757812 256.585938 311.5625 254.949219 311.65625 253.296875 C 311.730469 249.996094 311.886719 246.714844 312.457031 243.480469 C 313.191406 236.980469 315.246094 230.738281 317.609375 224.835938 C 322.71875 213.113281 330.789062 203.066406 340.574219 196.144531 C 345.621094 192.835938 350.761719 189.992188 356.359375 188.390625 C 361.792969 186.589844 367.53125 185.921875 373.0625 186.21875 L 373.703125 186.253906 C 374.441406 186.292969 375.011719 186.925781 374.972656 187.667969 C 374.945312 188.171875 374.640625 188.597656 374.214844 188.804688 C 365.695312 192.925781 358.15625 198.875 352.195312 206.078125 C 346.285156 213.320312 341.929688 221.800781 339.585938 230.792969 C 337.410156 239.8125 336.898438 249.257812 338.621094 258.375 L 339.390625 261.765625 L 339.773438 263.457031 L 340.25 265.203125 L 342.171875 272.1875 L 346.019531 286.160156 C 346.640625 288.445312 347.273438 290.9375 347.742188 293.410156 C 348.210938 295.886719 348.53125 298.394531 348.714844 300.914062 C 349.070312 305.949219 348.820312 311.027344 347.976562 316 C 346.273438 325.9375 342.25 335.488281 336.164062 343.496094 C 330.125 351.523438 322.222656 358.121094 313.242188 362.523438 C 304.222656 366.855469 294.21875 368.933594 284.34375 368.699219 C 283.613281 368.679688 283.03125 368.074219 283.050781 367.34375 C 283.0625 366.863281 283.328125 366.449219 283.714844 366.226562 L 284.34375 365.867188 " fill-opacity="1" fill-rule="nonzero"/></g><g fill="#ffffff" fill-opacity="1"><g transform="translate(167.572822, 64.028269)"><g><path d="M 8.484375 0 L 5.5 0 L 1.046875 -19.421875 L 3.3125 -19.421875 L 6.953125 -3.359375 L 7.296875 -3.359375 L 11.65625 -19.421875 L 13.765625 -19.421875 L 18.125 -3.359375 L 18.453125 -3.359375 L 22.109375 -19.421875 L 24.3125 -19.421875 L 19.875 0 L 16.875 0 L 12.8125 -14.703125 L 12.53125 -14.703125 Z M 8.484375 0 "/></g></g></g><g fill="#ffffff" fill-opacity="1"><g transform="translate(192.926004, 64.028269)"><g><path d="M 2.546875 0 L 2.546875 -20.53125 L 4.71875 -20.53125 L 4.71875 -12.5625 L 5 -12.515625 C 6.039062 -14.128906 7.550781 -14.9375 9.53125 -14.9375 C 11.289062 -14.9375 12.566406 -14.484375 13.359375 -13.578125 C 14.148438 -12.679688 14.546875 -11.300781 14.546875 -9.4375 L 14.546875 0 L 12.375 0 L 12.375 -9.375 C 12.375 -10.257812 12.257812 -10.96875 12.03125 -11.5 C 11.8125 -12.039062 11.460938 -12.429688 10.984375 -12.671875 C 10.515625 -12.921875 9.894531 -13.046875 9.125 -13.046875 C 7.800781 -13.046875 6.734375 -12.613281 5.921875 -11.75 C 5.117188 -10.894531 4.71875 -9.484375 4.71875 -7.515625 L 4.71875 0 Z M 2.546875 0 "/></g></g></g><g fill="#ffffff" fill-opacity="1"><g transform="translate(209.792706, 64.028269)"><g><path d="M 2.9375 6.21875 C 2.4375 6.21875 1.972656 6.175781 1.546875 6.09375 C 1.117188 6.007812 0.75 5.890625 0.4375 5.734375 L 0.84375 4.03125 L 1.078125 3.9375 C 1.285156 4.050781 1.546875 4.144531 1.859375 4.21875 C 2.179688 4.289062 2.515625 4.328125 2.859375 4.328125 C 3.453125 4.328125 3.941406 4.25 4.328125 4.09375 C 4.722656 3.9375 5.054688 3.671875 5.328125 3.296875 C 5.609375 2.929688 5.867188 2.425781 6.109375 1.78125 L 6.625 0.34375 L 0.75 -14.65625 L 3.078125 -14.65625 L 7.6875 -2.703125 L 7.9375 -2.703125 L 12.40625 -14.65625 L 14.625 -14.65625 L 8.078125 2.296875 C 7.703125 3.234375 7.285156 3.988281 6.828125 4.5625 C 6.367188 5.132812 5.820312 5.550781 5.1875 5.8125 C 4.5625 6.082031 3.8125 6.21875 2.9375 6.21875 Z M 2.9375 6.21875 "/></g></g></g><g fill="#ffffff" fill-opacity="1"><g transform="translate(148.471261, 101.528266)"><g><path d="M 8.484375 0.28125 C 7.265625 0.28125 6.171875 0.113281 5.203125 -0.21875 C 4.234375 -0.550781 3.425781 -0.988281 2.78125 -1.53125 C 2.132812 -2.070312 1.648438 -2.664062 1.328125 -3.3125 L 2.578125 -4.828125 L 2.90625 -4.828125 C 4.113281 -2.796875 5.972656 -1.78125 8.484375 -1.78125 C 9.941406 -1.78125 11.023438 -2.082031 11.734375 -2.6875 C 12.453125 -3.300781 12.8125 -4.15625 12.8125 -5.25 C 12.8125 -5.882812 12.691406 -6.421875 12.453125 -6.859375 C 12.222656 -7.304688 11.835938 -7.6875 11.296875 -8 C 10.765625 -8.3125 10.03125 -8.582031 9.09375 -8.8125 L 6.828125 -9.375 C 5.140625 -9.78125 3.894531 -10.425781 3.09375 -11.3125 C 2.289062 -12.207031 1.890625 -13.335938 1.890625 -14.703125 C 1.890625 -15.671875 2.132812 -16.53125 2.625 -17.28125 C 3.125 -18.039062 3.851562 -18.632812 4.8125 -19.0625 C 5.769531 -19.488281 6.910156 -19.703125 8.234375 -19.703125 C 9.691406 -19.703125 10.921875 -19.492188 11.921875 -19.078125 C 12.929688 -18.671875 13.738281 -18.054688 14.34375 -17.234375 L 13.234375 -15.734375 L 12.890625 -15.734375 C 12.335938 -16.410156 11.679688 -16.90625 10.921875 -17.21875 C 10.160156 -17.539062 9.265625 -17.703125 8.234375 -17.703125 C 6.890625 -17.703125 5.875 -17.441406 5.1875 -16.921875 C 4.5 -16.398438 4.15625 -15.675781 4.15625 -14.75 C 4.15625 -13.875 4.40625 -13.175781 4.90625 -12.65625 C 5.414062 -12.144531 6.269531 -11.75 7.46875 -11.46875 L 9.796875 -10.90625 C 11.679688 -10.457031 13.046875 -9.773438 13.890625 -8.859375 C 14.734375 -7.941406 15.15625 -6.773438 15.15625 -5.359375 C 15.15625 -4.253906 14.910156 -3.28125 14.421875 -2.4375 C 13.929688 -1.59375 13.179688 -0.925781 12.171875 -0.4375 C 11.171875 0.0390625 9.941406 0.28125 8.484375 0.28125 Z M 8.484375 0.28125 "/></g></g></g><g fill="#ffffff" fill-opacity="1"><g transform="translate(165.112194, 101.528266)"><g><path d="M 9.90625 -2.328125 L 10.59375 -0.765625 C 10.25 -0.421875 9.796875 -0.160156 9.234375 0.015625 C 8.671875 0.191406 8.0625 0.28125 7.40625 0.28125 C 4.613281 0.28125 3.21875 -1.132812 3.21875 -3.96875 L 3.21875 -12.890625 L 0.671875 -12.890625 L 0.671875 -14.671875 L 3.21875 -14.671875 L 3.21875 -17.765625 L 5.375 -18.125 L 5.375 -14.671875 L 10.09375 -14.671875 L 10.09375 -12.890625 L 5.375 -12.890625 L 5.375 -4.1875 C 5.375 -2.5 6.109375 -1.65625 7.578125 -1.65625 C 8.367188 -1.65625 9.050781 -1.878906 9.625 -2.328125 Z M 9.90625 -2.328125 "/></g></g></g><g fill="#ffffff" fill-opacity="1"><g transform="translate(176.268123, 101.528266)"><g><path d="M 2.546875 0 L 2.546875 -14.65625 L 4.609375 -14.65625 L 4.609375 -12.359375 L 4.890625 -12.28125 C 5.566406 -13.945312 6.847656 -14.78125 8.734375 -14.78125 C 9.734375 -14.78125 10.484375 -14.597656 10.984375 -14.234375 L 10.421875 -12.40625 L 10.15625 -12.359375 C 9.613281 -12.628906 9.015625 -12.765625 8.359375 -12.765625 C 7.179688 -12.765625 6.28125 -12.328125 5.65625 -11.453125 C 5.03125 -10.578125 4.71875 -9.15625 4.71875 -7.1875 L 4.71875 0 Z M 2.546875 0 "/></g></g></g><g fill="#ffffff" fill-opacity="1"><g transform="translate(187.583422, 101.528266)"><g><path d="M 13.953125 -6.828125 L 3.890625 -6.828125 C 3.953125 -5.046875 4.378906 -3.738281 5.171875 -2.90625 C 5.960938 -2.070312 7.050781 -1.65625 8.4375 -1.65625 C 9.476562 -1.65625 10.316406 -1.84375 10.953125 -2.21875 C 11.597656 -2.59375 12.097656 -3.175781 12.453125 -3.96875 L 12.734375 -3.96875 L 14.140625 -3.140625 C 13.722656 -2.078125 13.046875 -1.238281 12.109375 -0.625 C 11.171875 -0.0195312 9.945312 0.28125 8.4375 0.28125 C 7.019531 0.28125 5.800781 0.00390625 4.78125 -0.546875 C 3.757812 -1.109375 2.972656 -1.957031 2.421875 -3.09375 C 1.878906 -4.226562 1.609375 -5.632812 1.609375 -7.3125 C 1.609375 -8.976562 1.894531 -10.382812 2.46875 -11.53125 C 3.050781 -12.675781 3.84375 -13.53125 4.84375 -14.09375 C 5.851562 -14.65625 7.003906 -14.9375 8.296875 -14.9375 C 10.179688 -14.9375 11.648438 -14.40625 12.703125 -13.34375 C 13.753906 -12.28125 14.285156 -10.710938 14.296875 -8.640625 C 14.296875 -7.816406 14.273438 -7.265625 14.234375 -6.984375 Z M 12.15625 -8.640625 C 12.113281 -10.191406 11.765625 -11.320312 11.109375 -12.03125 C 10.460938 -12.738281 9.523438 -13.09375 8.296875 -13.09375 C 7.015625 -13.09375 6.007812 -12.734375 5.28125 -12.015625 C 4.550781 -11.304688 4.101562 -10.179688 3.9375 -8.640625 Z M 12.15625 -8.640625 "/></g></g></g><g fill="#ffffff" fill-opacity="1"><g transform="translate(203.201723, 101.528266)"><g><path d="M 6.6875 0.28125 C 5.757812 0.28125 4.90625 0.160156 4.125 -0.078125 C 3.34375 -0.328125 2.679688 -0.664062 2.140625 -1.09375 C 1.597656 -1.519531 1.21875 -2 1 -2.53125 L 2.265625 -3.859375 L 2.546875 -3.859375 C 3.023438 -3.128906 3.597656 -2.578125 4.265625 -2.203125 C 4.941406 -1.835938 5.75 -1.65625 6.6875 -1.65625 C 7.757812 -1.65625 8.578125 -1.863281 9.140625 -2.28125 C 9.703125 -2.707031 9.984375 -3.296875 9.984375 -4.046875 C 9.984375 -4.628906 9.8125 -5.109375 9.46875 -5.484375 C 9.132812 -5.859375 8.585938 -6.140625 7.828125 -6.328125 L 5.359375 -6.9375 C 4.035156 -7.25 3.066406 -7.75 2.453125 -8.4375 C 1.847656 -9.132812 1.546875 -9.992188 1.546875 -11.015625 C 1.546875 -11.804688 1.75 -12.492188 2.15625 -13.078125 C 2.570312 -13.671875 3.160156 -14.128906 3.921875 -14.453125 C 4.691406 -14.773438 5.601562 -14.9375 6.65625 -14.9375 C 8 -14.9375 9.054688 -14.742188 9.828125 -14.359375 C 10.609375 -13.984375 11.21875 -13.460938 11.65625 -12.796875 L 10.421875 -11.59375 L 10.15625 -11.59375 C 9.6875 -12.132812 9.175781 -12.523438 8.625 -12.765625 C 8.070312 -13.003906 7.414062 -13.125 6.65625 -13.125 C 5.6875 -13.125 4.945312 -12.953125 4.4375 -12.609375 C 3.925781 -12.265625 3.671875 -11.765625 3.671875 -11.109375 C 3.671875 -10.515625 3.847656 -10.035156 4.203125 -9.671875 C 4.566406 -9.304688 5.203125 -9.015625 6.109375 -8.796875 L 8.546875 -8.203125 C 9.816406 -7.898438 10.734375 -7.398438 11.296875 -6.703125 C 11.867188 -6.003906 12.15625 -5.128906 12.15625 -4.078125 C 12.15625 -3.222656 11.953125 -2.46875 11.546875 -1.8125 C 11.140625 -1.15625 10.523438 -0.640625 9.703125 -0.265625 C 8.878906 0.0976562 7.875 0.28125 6.6875 0.28125 Z M 6.6875 0.28125 "/></g></g></g><g fill="#ffffff" fill-opacity="1"><g transform="translate(216.748207, 101.528266)"><g><path d="M 6.6875 0.28125 C 5.757812 0.28125 4.90625 0.160156 4.125 -0.078125 C 3.34375 -0.328125 2.679688 -0.664062 2.140625 -1.09375 C 1.597656 -1.519531 1.21875 -2 1 -2.53125 L 2.265625 -3.859375 L 2.546875 -3.859375 C 3.023438 -3.128906 3.597656 -2.578125 4.265625 -2.203125 C 4.941406 -1.835938 5.75 -1.65625 6.6875 -1.65625 C 7.757812 -1.65625 8.578125 -1.863281 9.140625 -2.28125 C 9.703125 -2.707031 9.984375 -3.296875 9.984375 -4.046875 C 9.984375 -4.628906 9.8125 -5.109375 9.46875 -5.484375 C 9.132812 -5.859375 8.585938 -6.140625 7.828125 -6.328125 L 5.359375 -6.9375 C 4.035156 -7.25 3.066406 -7.75 2.453125 -8.4375 C 1.847656 -9.132812 1.546875 -9.992188 1.546875 -11.015625 C 1.546875 -11.804688 1.75 -12.492188 2.15625 -13.078125 C 2.570312 -13.671875 3.160156 -14.128906 3.921875 -14.453125 C 4.691406 -14.773438 5.601562 -14.9375 6.65625 -14.9375 C 8 -14.9375 9.054688 -14.742188 9.828125 -14.359375 C 10.609375 -13.984375 11.21875 -13.460938 11.65625 -12.796875 L 10.421875 -11.59375 L 10.15625 -11.59375 C 9.6875 -12.132812 9.175781 -12.523438 8.625 -12.765625 C 8.070312 -13.003906 7.414062 -13.125 6.65625 -13.125 C 5.6875 -13.125 4.945312 -12.953125 4.4375 -12.609375 C 3.925781 -12.265625 3.671875 -11.765625 3.671875 -11.109375 C 3.671875 -10.515625 3.847656 -10.035156 4.203125 -9.671875 C 4.566406 -9.304688 5.203125 -9.015625 6.109375 -8.796875 L 8.546875 -8.203125 C 9.816406 -7.898438 10.734375 -7.398438 11.296875 -6.703125 C 11.867188 -6.003906 12.15625 -5.128906 12.15625 -4.078125 C 12.15625 -3.222656 11.953125 -2.46875 11.546875 -1.8125 C 11.140625 -1.15625 10.523438 -0.640625 9.703125 -0.265625 C 8.878906 0.0976562 7.875 0.28125 6.6875 0.28125 Z M 6.6875 0.28125 "/></g></g></g><g fill="#ffffff" fill-opacity="1"><g transform="translate(230.294692, 101.528266)"><g><path d="M 5.171875 -6.984375 C 5.171875 -7.578125 5.242188 -8.085938 5.390625 -8.515625 C 5.535156 -8.953125 5.769531 -9.363281 6.09375 -9.75 C 6.425781 -10.144531 6.898438 -10.570312 7.515625 -11.03125 L 8.734375 -11.984375 C 9.265625 -12.390625 9.648438 -12.832031 9.890625 -13.3125 C 10.140625 -13.800781 10.265625 -14.367188 10.265625 -15.015625 C 10.265625 -15.816406 9.960938 -16.457031 9.359375 -16.9375 C 8.765625 -17.414062 7.929688 -17.65625 6.859375 -17.65625 C 4.984375 -17.65625 3.585938 -16.820312 2.671875 -15.15625 L 2.359375 -15.09375 L 1 -16.53125 C 2.363281 -18.644531 4.316406 -19.703125 6.859375 -19.703125 C 8.128906 -19.703125 9.203125 -19.492188 10.078125 -19.078125 C 10.953125 -18.671875 11.597656 -18.113281 12.015625 -17.40625 C 12.441406 -16.695312 12.65625 -15.898438 12.65625 -15.015625 C 12.65625 -14.003906 12.425781 -13.148438 11.96875 -12.453125 C 11.519531 -11.765625 10.867188 -11.085938 10.015625 -10.421875 L 8.9375 -9.609375 C 8.507812 -9.273438 8.1875 -8.984375 7.96875 -8.734375 C 7.757812 -8.484375 7.609375 -8.210938 7.515625 -7.921875 C 7.429688 -7.628906 7.390625 -7.265625 7.390625 -6.828125 L 7.390625 -6.4375 L 5.171875 -6.4375 Z M 6.21875 0.140625 C 5.707031 0.140625 5.304688 0 5.015625 -0.28125 C 4.722656 -0.570312 4.578125 -0.953125 4.578125 -1.421875 C 4.578125 -1.878906 4.722656 -2.253906 5.015625 -2.546875 C 5.304688 -2.847656 5.707031 -3 6.21875 -3 C 6.71875 -3 7.113281 -2.859375 7.40625 -2.578125 C 7.695312 -2.296875 7.84375 -1.921875 7.84375 -1.453125 C 7.84375 -0.984375 7.695312 -0.597656 7.40625 -0.296875 C 7.113281 -0.00390625 6.71875 0.140625 6.21875 0.140625 Z M 6.21875 0.140625 "/></g></g></g><g fill="#ffffff" fill-opacity="1"><g transform="translate(125.537669, 139.028264)"><g><path d="M 6.421875 0.28125 C 5.453125 0.28125 4.5625 0.140625 3.75 -0.140625 C 2.945312 -0.429688 2.269531 -0.828125 1.71875 -1.328125 C 1.164062 -1.828125 0.757812 -2.375 0.5 -2.96875 L 1.6875 -4.53125 L 2.015625 -4.53125 C 2.410156 -3.695312 2.984375 -3.035156 3.734375 -2.546875 C 4.492188 -2.066406 5.390625 -1.828125 6.421875 -1.828125 C 7.253906 -1.828125 7.929688 -1.960938 8.453125 -2.234375 C 8.972656 -2.503906 9.363281 -2.953125 9.625 -3.578125 C 9.882812 -4.203125 10.015625 -5.046875 10.015625 -6.109375 L 10.015625 -19.421875 L 12.28125 -19.421875 L 12.28125 -6.0625 C 12.28125 -3.875 11.789062 -2.269531 10.8125 -1.25 C 9.832031 -0.226562 8.367188 0.28125 6.421875 0.28125 Z M 6.421875 0.28125 "/></g></g></g><g fill="#ffffff" fill-opacity="1"><g transform="translate(140.584898, 139.028264)"><g><path d="M 7.234375 0.28125 C 5.578125 0.28125 4.34375 -0.15625 3.53125 -1.03125 C 2.726562 -1.90625 2.328125 -3.191406 2.328125 -4.890625 L 2.328125 -14.65625 L 4.484375 -14.65625 L 4.484375 -4.9375 C 4.484375 -2.71875 5.53125 -1.609375 7.625 -1.609375 C 8.945312 -1.609375 9.992188 -2.039062 10.765625 -2.90625 C 11.535156 -3.769531 11.921875 -5.179688 11.921875 -7.140625 L 11.921875 -14.65625 L 14.09375 -14.65625 L 14.09375 0 L 12.046875 0 L 12.046875 -2.296875 L 11.765625 -2.359375 C 11.265625 -1.460938 10.660156 -0.796875 9.953125 -0.359375 C 9.253906 0.0664062 8.347656 0.28125 7.234375 0.28125 Z M 7.234375 0.28125 "/></g></g></g><g fill="#ffffff" fill-opacity="1"><g transform="translate(157.22583, 139.028264)"><g><path d="M 6.6875 0.28125 C 5.757812 0.28125 4.90625 0.160156 4.125 -0.078125 C 3.34375 -0.328125 2.679688 -0.664062 2.140625 -1.09375 C 1.597656 -1.519531 1.21875 -2 1 -2.53125 L 2.265625 -3.859375 L 2.546875 -3.859375 C 3.023438 -3.128906 3.597656 -2.578125 4.265625 -2.203125 C 4.941406 -1.835938 5.75 -1.65625 6.6875 -1.65625 C 7.757812 -1.65625 8.578125 -1.863281 9.140625 -2.28125 C 9.703125 -2.707031 9.984375 -3.296875 9.984375 -4.046875 C 9.984375 -4.628906 9.8125 -5.109375 9.46875 -5.484375 C 9.132812 -5.859375 8.585938 -6.140625 7.828125 -6.328125 L 5.359375 -6.9375 C 4.035156 -7.25 3.066406 -7.75 2.453125 -8.4375 C 1.847656 -9.132812 1.546875 -9.992188 1.546875 -11.015625 C 1.546875 -11.804688 1.75 -12.492188 2.15625 -13.078125 C 2.570312 -13.671875 3.160156 -14.128906 3.921875 -14.453125 C 4.691406 -14.773438 5.601562 -14.9375 6.65625 -14.9375 C 8 -14.9375 9.054688 -14.742188 9.828125 -14.359375 C 10.609375 -13.984375 11.21875 -13.460938 11.65625 -12.796875 L 10.421875 -11.59375 L 10.15625 -11.59375 C 9.6875 -12.132812 9.175781 -12.523438 8.625 -12.765625 C 8.070312 -13.003906 7.414062 -13.125 6.65625 -13.125 C 5.6875 -13.125 4.945312 -12.953125 4.4375 -12.609375 C 3.925781 -12.265625 3.671875 -11.765625 3.671875 -11.109375 C 3.671875 -10.515625 3.847656 -10.035156 4.203125 -9.671875 C 4.566406 -9.304688 5.203125 -9.015625 6.109375 -8.796875 L 8.546875 -8.203125 C 9.816406 -7.898438 10.734375 -7.398438 11.296875 -6.703125 C 11.867188 -6.003906 12.15625 -5.128906 12.15625 -4.078125 C 12.15625 -3.222656 11.953125 -2.46875 11.546875 -1.8125 C 11.140625 -1.15625 10.523438 -0.640625 9.703125 -0.265625 C 8.878906 0.0976562 7.875 0.28125 6.6875 0.28125 Z M 6.6875 0.28125 "/></g></g></g><g fill="#ffffff" fill-opacity="1"><g transform="translate(170.772315, 139.028264)"><g><path d="M 9.90625 -2.328125 L 10.59375 -0.765625 C 10.25 -0.421875 9.796875 -0.160156 9.234375 0.015625 C 8.671875 0.191406 8.0625 0.28125 7.40625 0.28125 C 4.613281 0.28125 3.21875 -1.132812 3.21875 -3.96875 L 3.21875 -12.890625 L 0.671875 -12.890625 L 0.671875 -14.671875 L 3.21875 -14.671875 L 3.21875 -17.765625 L 5.375 -18.125 L 5.375 -14.671875 L 10.09375 -14.671875 L 10.09375 -12.890625 L 5.375 -12.890625 L 5.375 -4.1875 C 5.375 -2.5 6.109375 -1.65625 7.578125 -1.65625 C 8.367188 -1.65625 9.050781 -1.878906 9.625 -2.328125 Z M 9.90625 -2.328125 "/></g></g></g><g fill="#ffffff" fill-opacity="1"><g transform="translate(181.928244, 139.028264)"><g/></g></g><g fill="#ffffff" fill-opacity="1"><g transform="translate(188.59524, 139.028264)"><g><path d="M 9.875 -19.421875 C 11.21875 -19.421875 12.363281 -19.179688 13.3125 -18.703125 C 14.269531 -18.222656 15 -17.535156 15.5 -16.640625 C 16.007812 -15.753906 16.265625 -14.710938 16.265625 -13.515625 C 16.265625 -12.304688 16.007812 -11.257812 15.5 -10.375 C 15 -9.488281 14.269531 -8.800781 13.3125 -8.3125 C 12.363281 -7.832031 11.21875 -7.59375 9.875 -7.59375 L 5.21875 -7.59375 L 5.21875 0 L 2.9375 0 L 2.9375 -19.421875 Z M 9.8125 -9.546875 C 12.519531 -9.546875 13.875 -10.867188 13.875 -13.515625 C 13.875 -16.160156 12.519531 -17.484375 9.8125 -17.484375 L 5.21875 -17.484375 L 5.21875 -9.546875 Z M 9.8125 -9.546875 "/></g></g></g><g fill="#ffffff" fill-opacity="1"><g transform="translate(206.298642, 139.028264)"><g><path d="M 6.046875 0.28125 C 4.597656 0.28125 3.46875 -0.09375 2.65625 -0.84375 C 1.851562 -1.601562 1.453125 -2.679688 1.453125 -4.078125 C 1.453125 -4.941406 1.628906 -5.671875 1.984375 -6.265625 C 2.347656 -6.867188 2.90625 -7.359375 3.65625 -7.734375 C 4.40625 -8.109375 5.382812 -8.398438 6.59375 -8.609375 C 7.664062 -8.785156 8.476562 -8.984375 9.03125 -9.203125 C 9.582031 -9.421875 9.953125 -9.664062 10.140625 -9.9375 C 10.328125 -10.21875 10.421875 -10.566406 10.421875 -10.984375 C 10.421875 -11.648438 10.191406 -12.160156 9.734375 -12.515625 C 9.285156 -12.867188 8.554688 -13.046875 7.546875 -13.046875 C 6.597656 -13.046875 5.785156 -12.859375 5.109375 -12.484375 C 4.429688 -12.117188 3.804688 -11.578125 3.234375 -10.859375 L 2.96875 -10.859375 L 1.90625 -12.359375 C 2.53125 -13.140625 3.320312 -13.765625 4.28125 -14.234375 C 5.238281 -14.703125 6.328125 -14.9375 7.546875 -14.9375 C 9.273438 -14.9375 10.546875 -14.554688 11.359375 -13.796875 C 12.179688 -13.035156 12.59375 -11.988281 12.59375 -10.65625 L 12.59375 -2.875 C 12.59375 -2.0625 12.9375 -1.65625 13.625 -1.65625 C 13.851562 -1.65625 14.078125 -1.695312 14.296875 -1.78125 L 14.484375 -1.734375 L 14.734375 -0.21875 C 14.566406 -0.113281 14.351562 -0.0351562 14.09375 0.015625 C 13.832031 0.078125 13.566406 0.109375 13.296875 0.109375 C 12.492188 0.109375 11.882812 -0.0664062 11.46875 -0.421875 C 11.0625 -0.773438 10.796875 -1.300781 10.671875 -2 L 10.40625 -2.015625 C 9.988281 -1.242188 9.425781 -0.664062 8.71875 -0.28125 C 8.007812 0.09375 7.117188 0.28125 6.046875 0.28125 Z M 6.515625 -1.453125 C 7.335938 -1.453125 8.046875 -1.640625 8.640625 -2.015625 C 9.234375 -2.390625 9.691406 -2.914062 10.015625 -3.59375 C 10.335938 -4.28125 10.5 -5.070312 10.5 -5.96875 L 10.5 -7.828125 L 10.234375 -7.875 C 9.910156 -7.644531 9.515625 -7.453125 9.046875 -7.296875 C 8.578125 -7.140625 7.921875 -7 7.078125 -6.875 C 6.222656 -6.757812 5.546875 -6.582031 5.046875 -6.34375 C 4.546875 -6.101562 4.191406 -5.800781 3.984375 -5.4375 C 3.773438 -5.070312 3.671875 -4.617188 3.671875 -4.078125 C 3.671875 -3.222656 3.921875 -2.570312 4.421875 -2.125 C 4.929688 -1.675781 5.628906 -1.453125 6.515625 -1.453125 Z M 6.515625 -1.453125 "/></g></g></g><g fill="#ffffff" fill-opacity="1"><g transform="translate(221.452118, 139.028264)"><g><path d="M 7.234375 0.28125 C 5.578125 0.28125 4.34375 -0.15625 3.53125 -1.03125 C 2.726562 -1.90625 2.328125 -3.191406 2.328125 -4.890625 L 2.328125 -14.65625 L 4.484375 -14.65625 L 4.484375 -4.9375 C 4.484375 -2.71875 5.53125 -1.609375 7.625 -1.609375 C 8.945312 -1.609375 9.992188 -2.039062 10.765625 -2.90625 C 11.535156 -3.769531 11.921875 -5.179688 11.921875 -7.140625 L 11.921875 -14.65625 L 14.09375 -14.65625 L 14.09375 0 L 12.046875 0 L 12.046875 -2.296875 L 11.765625 -2.359375 C 11.265625 -1.460938 10.660156 -0.796875 9.953125 -0.359375 C 9.253906 0.0664062 8.347656 0.28125 7.234375 0.28125 Z M 7.234375 0.28125 "/></g></g></g><g fill="#ffffff" fill-opacity="1"><g transform="translate(238.093051, 139.028264)"><g><path d="M 6.6875 0.28125 C 5.757812 0.28125 4.90625 0.160156 4.125 -0.078125 C 3.34375 -0.328125 2.679688 -0.664062 2.140625 -1.09375 C 1.597656 -1.519531 1.21875 -2 1 -2.53125 L 2.265625 -3.859375 L 2.546875 -3.859375 C 3.023438 -3.128906 3.597656 -2.578125 4.265625 -2.203125 C 4.941406 -1.835938 5.75 -1.65625 6.6875 -1.65625 C 7.757812 -1.65625 8.578125 -1.863281 9.140625 -2.28125 C 9.703125 -2.707031 9.984375 -3.296875 9.984375 -4.046875 C 9.984375 -4.628906 9.8125 -5.109375 9.46875 -5.484375 C 9.132812 -5.859375 8.585938 -6.140625 7.828125 -6.328125 L 5.359375 -6.9375 C 4.035156 -7.25 3.066406 -7.75 2.453125 -8.4375 C 1.847656 -9.132812 1.546875 -9.992188 1.546875 -11.015625 C 1.546875 -11.804688 1.75 -12.492188 2.15625 -13.078125 C 2.570312 -13.671875 3.160156 -14.128906 3.921875 -14.453125 C 4.691406 -14.773438 5.601562 -14.9375 6.65625 -14.9375 C 8 -14.9375 9.054688 -14.742188 9.828125 -14.359375 C 10.609375 -13.984375 11.21875 -13.460938 11.65625 -12.796875 L 10.421875 -11.59375 L 10.15625 -11.59375 C 9.6875 -12.132812 9.175781 -12.523438 8.625 -12.765625 C 8.070312 -13.003906 7.414062 -13.125 6.65625 -13.125 C 5.6875 -13.125 4.945312 -12.953125 4.4375 -12.609375 C 3.925781 -12.265625 3.671875 -11.765625 3.671875 -11.109375 C 3.671875 -10.515625 3.847656 -10.035156 4.203125 -9.671875 C 4.566406 -9.304688 5.203125 -9.015625 6.109375 -8.796875 L 8.546875 -8.203125 C 9.816406 -7.898438 10.734375 -7.398438 11.296875 -6.703125 C 11.867188 -6.003906 12.15625 -5.128906 12.15625 -4.078125 C 12.15625 -3.222656 11.953125 -2.46875 11.546875 -1.8125 C 11.140625 -1.15625 10.523438 -0.640625 9.703125 -0.265625 C 8.878906 0.0976562 7.875 0.28125 6.6875 0.28125 Z M 6.6875 0.28125 "/></g></g></g><g fill="#ffffff" fill-opacity="1"><g transform="translate(251.639536, 139.028264)"><g><path d="M 13.953125 -6.828125 L 3.890625 -6.828125 C 3.953125 -5.046875 4.378906 -3.738281 5.171875 -2.90625 C 5.960938 -2.070312 7.050781 -1.65625 8.4375 -1.65625 C 9.476562 -1.65625 10.316406 -1.84375 10.953125 -2.21875 C 11.597656 -2.59375 12.097656 -3.175781 12.453125 -3.96875 L 12.734375 -3.96875 L 14.140625 -3.140625 C 13.722656 -2.078125 13.046875 -1.238281 12.109375 -0.625 C 11.171875 -0.0195312 9.945312 0.28125 8.4375 0.28125 C 7.019531 0.28125 5.800781 0.00390625 4.78125 -0.546875 C 3.757812 -1.109375 2.972656 -1.957031 2.421875 -3.09375 C 1.878906 -4.226562 1.609375 -5.632812 1.609375 -7.3125 C 1.609375 -8.976562 1.894531 -10.382812 2.46875 -11.53125 C 3.050781 -12.675781 3.84375 -13.53125 4.84375 -14.09375 C 5.851562 -14.65625 7.003906 -14.9375 8.296875 -14.9375 C 10.179688 -14.9375 11.648438 -14.40625 12.703125 -13.34375 C 13.753906 -12.28125 14.285156 -10.710938 14.296875 -8.640625 C 14.296875 -7.816406 14.273438 -7.265625 14.234375 -6.984375 Z M 12.15625 -8.640625 C 12.113281 -10.191406 11.765625 -11.320312 11.109375 -12.03125 C 10.460938 -12.738281 9.523438 -13.09375 8.296875 -13.09375 C 7.015625 -13.09375 6.007812 -12.734375 5.28125 -12.015625 C 4.550781 -11.304688 4.101562 -10.179688 3.9375 -8.640625 Z M 12.15625 -8.640625 "/></g></g></g><g fill="#ffffff" fill-opacity="1"><g transform="translate(133.1197, 176.528261)"><g><path d="M 6.046875 0.28125 C 4.597656 0.28125 3.46875 -0.09375 2.65625 -0.84375 C 1.851562 -1.601562 1.453125 -2.679688 1.453125 -4.078125 C 1.453125 -4.941406 1.628906 -5.671875 1.984375 -6.265625 C 2.347656 -6.867188 2.90625 -7.359375 3.65625 -7.734375 C 4.40625 -8.109375 5.382812 -8.398438 6.59375 -8.609375 C 7.664062 -8.785156 8.476562 -8.984375 9.03125 -9.203125 C 9.582031 -9.421875 9.953125 -9.664062 10.140625 -9.9375 C 10.328125 -10.21875 10.421875 -10.566406 10.421875 -10.984375 C 10.421875 -11.648438 10.191406 -12.160156 9.734375 -12.515625 C 9.285156 -12.867188 8.554688 -13.046875 7.546875 -13.046875 C 6.597656 -13.046875 5.785156 -12.859375 5.109375 -12.484375 C 4.429688 -12.117188 3.804688 -11.578125 3.234375 -10.859375 L 2.96875 -10.859375 L 1.90625 -12.359375 C 2.53125 -13.140625 3.320312 -13.765625 4.28125 -14.234375 C 5.238281 -14.703125 6.328125 -14.9375 7.546875 -14.9375 C 9.273438 -14.9375 10.546875 -14.554688 11.359375 -13.796875 C 12.179688 -13.035156 12.59375 -11.988281 12.59375 -10.65625 L 12.59375 -2.875 C 12.59375 -2.0625 12.9375 -1.65625 13.625 -1.65625 C 13.851562 -1.65625 14.078125 -1.695312 14.296875 -1.78125 L 14.484375 -1.734375 L 14.734375 -0.21875 C 14.566406 -0.113281 14.351562 -0.0351562 14.09375 0.015625 C 13.832031 0.078125 13.566406 0.109375 13.296875 0.109375 C 12.492188 0.109375 11.882812 -0.0664062 11.46875 -0.421875 C 11.0625 -0.773438 10.796875 -1.300781 10.671875 -2 L 10.40625 -2.015625 C 9.988281 -1.242188 9.425781 -0.664062 8.71875 -0.28125 C 8.007812 0.09375 7.117188 0.28125 6.046875 0.28125 Z M 6.515625 -1.453125 C 7.335938 -1.453125 8.046875 -1.640625 8.640625 -2.015625 C 9.234375 -2.390625 9.691406 -2.914062 10.015625 -3.59375 C 10.335938 -4.28125 10.5 -5.070312 10.5 -5.96875 L 10.5 -7.828125 L 10.234375 -7.875 C 9.910156 -7.644531 9.515625 -7.453125 9.046875 -7.296875 C 8.578125 -7.140625 7.921875 -7 7.078125 -6.875 C 6.222656 -6.757812 5.546875 -6.582031 5.046875 -6.34375 C 4.546875 -6.101562 4.191406 -5.800781 3.984375 -5.4375 C 3.773438 -5.070312 3.671875 -4.617188 3.671875 -4.078125 C 3.671875 -3.222656 3.921875 -2.570312 4.421875 -2.125 C 4.929688 -1.675781 5.628906 -1.453125 6.515625 -1.453125 Z M 6.515625 -1.453125 "/></g></g></g><g fill="#ffffff" fill-opacity="1"><g transform="translate(148.273176, 176.528261)"><g><path d="M 2.546875 0 L 2.546875 -14.65625 L 4.609375 -14.65625 L 4.609375 -12.359375 L 4.890625 -12.28125 C 5.378906 -13.144531 6 -13.800781 6.75 -14.25 C 7.507812 -14.707031 8.4375 -14.9375 9.53125 -14.9375 C 11.289062 -14.9375 12.566406 -14.484375 13.359375 -13.578125 C 14.148438 -12.679688 14.546875 -11.300781 14.546875 -9.4375 L 14.546875 0 L 12.375 0 L 12.375 -9.375 C 12.375 -10.257812 12.257812 -10.96875 12.03125 -11.5 C 11.8125 -12.039062 11.460938 -12.429688 10.984375 -12.671875 C 10.515625 -12.921875 9.894531 -13.046875 9.125 -13.046875 C 7.800781 -13.046875 6.734375 -12.609375 5.921875 -11.734375 C 5.117188 -10.859375 4.71875 -9.453125 4.71875 -7.515625 L 4.71875 0 Z M 2.546875 0 "/></g></g></g><g fill="#ffffff" fill-opacity="1"><g transform="translate(165.139877, 176.528261)"><g><path d="M 7.59375 0.28125 C 6.414062 0.28125 5.378906 0 4.484375 -0.5625 C 3.585938 -1.125 2.882812 -1.972656 2.375 -3.109375 C 1.863281 -4.242188 1.609375 -5.644531 1.609375 -7.3125 C 1.609375 -8.988281 1.875 -10.394531 2.40625 -11.53125 C 2.9375 -12.675781 3.664062 -13.53125 4.59375 -14.09375 C 5.53125 -14.65625 6.613281 -14.9375 7.84375 -14.9375 C 8.820312 -14.9375 9.703125 -14.75 10.484375 -14.375 C 11.265625 -14.007812 11.929688 -13.40625 12.484375 -12.5625 L 12.765625 -12.625 L 12.765625 -20.53125 L 14.9375 -20.53125 L 14.9375 0 L 12.765625 0 L 12.765625 -2.140625 L 12.484375 -2.1875 C 12.003906 -1.46875 11.351562 -0.875 10.53125 -0.40625 C 9.71875 0.0507812 8.738281 0.28125 7.59375 0.28125 Z M 8.28125 -1.65625 C 9.644531 -1.65625 10.734375 -2.125 11.546875 -3.0625 C 12.359375 -4 12.765625 -5.414062 12.765625 -7.3125 C 12.765625 -9.226562 12.359375 -10.648438 11.546875 -11.578125 C 10.734375 -12.515625 9.644531 -12.984375 8.28125 -12.984375 C 6.863281 -12.984375 5.773438 -12.523438 5.015625 -11.609375 C 4.253906 -10.703125 3.875 -9.269531 3.875 -7.3125 C 3.875 -3.539062 5.34375 -1.65625 8.28125 -1.65625 Z M 8.28125 -1.65625 "/></g></g></g><g fill="#ffffff" fill-opacity="1"><g transform="translate(182.630786, 176.528261)"><g/></g></g><g fill="#ffffff" fill-opacity="1"><g transform="translate(189.297781, 176.528261)"><g><path d="M 2.546875 0 L 2.546875 -14.65625 L 4.609375 -14.65625 L 4.609375 -12.359375 L 4.890625 -12.28125 C 5.566406 -13.945312 6.847656 -14.78125 8.734375 -14.78125 C 9.734375 -14.78125 10.484375 -14.597656 10.984375 -14.234375 L 10.421875 -12.40625 L 10.15625 -12.359375 C 9.613281 -12.628906 9.015625 -12.765625 8.359375 -12.765625 C 7.179688 -12.765625 6.28125 -12.328125 5.65625 -11.453125 C 5.03125 -10.578125 4.71875 -9.15625 4.71875 -7.1875 L 4.71875 0 Z M 2.546875 0 "/></g></g></g><g fill="#ffffff" fill-opacity="1"><g transform="translate(200.613081, 176.528261)"><g><path d="M 13.953125 -6.828125 L 3.890625 -6.828125 C 3.953125 -5.046875 4.378906 -3.738281 5.171875 -2.90625 C 5.960938 -2.070312 7.050781 -1.65625 8.4375 -1.65625 C 9.476562 -1.65625 10.316406 -1.84375 10.953125 -2.21875 C 11.597656 -2.59375 12.097656 -3.175781 12.453125 -3.96875 L 12.734375 -3.96875 L 14.140625 -3.140625 C 13.722656 -2.078125 13.046875 -1.238281 12.109375 -0.625 C 11.171875 -0.0195312 9.945312 0.28125 8.4375 0.28125 C 7.019531 0.28125 5.800781 0.00390625 4.78125 -0.546875 C 3.757812 -1.109375 2.972656 -1.957031 2.421875 -3.09375 C 1.878906 -4.226562 1.609375 -5.632812 1.609375 -7.3125 C 1.609375 -8.976562 1.894531 -10.382812 2.46875 -11.53125 C 3.050781 -12.675781 3.84375 -13.53125 4.84375 -14.09375 C 5.851562 -14.65625 7.003906 -14.9375 8.296875 -14.9375 C 10.179688 -14.9375 11.648438 -14.40625 12.703125 -13.34375 C 13.753906 -12.28125 14.285156 -10.710938 14.296875 -8.640625 C 14.296875 -7.816406 14.273438 -7.265625 14.234375 -6.984375 Z M 12.15625 -8.640625 C 12.113281 -10.191406 11.765625 -11.320312 11.109375 -12.03125 C 10.460938 -12.738281 9.523438 -13.09375 8.296875 -13.09375 C 7.015625 -13.09375 6.007812 -12.734375 5.28125 -12.015625 C 4.550781 -11.304688 4.101562 -10.179688 3.9375 -8.640625 Z M 12.15625 -8.640625 "/></g></g></g><g fill="#ffffff" fill-opacity="1"><g transform="translate(216.231381, 176.528261)"><g><path d="M 5.828125 0.28125 C 4.796875 0.28125 3.984375 -0.0078125 3.390625 -0.59375 C 2.796875 -1.1875 2.5 -2.066406 2.5 -3.234375 L 2.5 -20.53125 L 4.65625 -20.53125 L 4.65625 -3.390625 C 4.65625 -2.773438 4.769531 -2.332031 5 -2.0625 C 5.238281 -1.789062 5.609375 -1.65625 6.109375 -1.65625 C 6.410156 -1.65625 6.71875 -1.707031 7.03125 -1.8125 L 7.21875 -1.75 L 7.46875 -0.046875 C 7.300781 0.0546875 7.066406 0.132812 6.765625 0.1875 C 6.472656 0.25 6.160156 0.28125 5.828125 0.28125 Z M 5.828125 0.28125 "/></g></g></g><g fill="#ffffff" fill-opacity="1"><g transform="translate(224.199902, 176.528261)"><g><path d="M 6.046875 0.28125 C 4.597656 0.28125 3.46875 -0.09375 2.65625 -0.84375 C 1.851562 -1.601562 1.453125 -2.679688 1.453125 -4.078125 C 1.453125 -4.941406 1.628906 -5.671875 1.984375 -6.265625 C 2.347656 -6.867188 2.90625 -7.359375 3.65625 -7.734375 C 4.40625 -8.109375 5.382812 -8.398438 6.59375 -8.609375 C 7.664062 -8.785156 8.476562 -8.984375 9.03125 -9.203125 C 9.582031 -9.421875 9.953125 -9.664062 10.140625 -9.9375 C 10.328125 -10.21875 10.421875 -10.566406 10.421875 -10.984375 C 10.421875 -11.648438 10.191406 -12.160156 9.734375 -12.515625 C 9.285156 -12.867188 8.554688 -13.046875 7.546875 -13.046875 C 6.597656 -13.046875 5.785156 -12.859375 5.109375 -12.484375 C 4.429688 -12.117188 3.804688 -11.578125 3.234375 -10.859375 L 2.96875 -10.859375 L 1.90625 -12.359375 C 2.53125 -13.140625 3.320312 -13.765625 4.28125 -14.234375 C 5.238281 -14.703125 6.328125 -14.9375 7.546875 -14.9375 C 9.273438 -14.9375 10.546875 -14.554688 11.359375 -13.796875 C 12.179688 -13.035156 12.59375 -11.988281 12.59375 -10.65625 L 12.59375 -2.875 C 12.59375 -2.0625 12.9375 -1.65625 13.625 -1.65625 C 13.851562 -1.65625 14.078125 -1.695312 14.296875 -1.78125 L 14.484375 -1.734375 L 14.734375 -0.21875 C 14.566406 -0.113281 14.351562 -0.0351562 14.09375 0.015625 C 13.832031 0.078125 13.566406 0.109375 13.296875 0.109375 C 12.492188 0.109375 11.882812 -0.0664062 11.46875 -0.421875 C 11.0625 -0.773438 10.796875 -1.300781 10.671875 -2 L 10.40625 -2.015625 C 9.988281 -1.242188 9.425781 -0.664062 8.71875 -0.28125 C 8.007812 0.09375 7.117188 0.28125 6.046875 0.28125 Z M 6.515625 -1.453125 C 7.335938 -1.453125 8.046875 -1.640625 8.640625 -2.015625 C 9.234375 -2.390625 9.691406 -2.914062 10.015625 -3.59375 C 10.335938 -4.28125 10.5 -5.070312 10.5 -5.96875 L 10.5 -7.828125 L 10.234375 -7.875 C 9.910156 -7.644531 9.515625 -7.453125 9.046875 -7.296875 C 8.578125 -7.140625 7.921875 -7 7.078125 -6.875 C 6.222656 -6.757812 5.546875 -6.582031 5.046875 -6.34375 C 4.546875 -6.101562 4.191406 -5.800781 3.984375 -5.4375 C 3.773438 -5.070312 3.671875 -4.617188 3.671875 -4.078125 C 3.671875 -3.222656 3.921875 -2.570312 4.421875 -2.125 C 4.929688 -1.675781 5.628906 -1.453125 6.515625 -1.453125 Z M 6.515625 -1.453125 "/></g></g></g><g fill="#ffffff" fill-opacity="1"><g transform="translate(239.353378, 176.528261)"><g><path d="M 3.0625 0 L 0.671875 0 L 5.1875 -7.59375 L 0.890625 -14.65625 L 3.328125 -14.65625 L 6.71875 -9.015625 L 7.03125 -9.015625 L 10.421875 -14.65625 L 12.765625 -14.65625 L 8.5625 -7.59375 L 12.984375 0 L 10.546875 0 L 6.9375 -6.1875 L 6.625 -6.1875 Z M 3.0625 0 "/></g></g></g><g fill="#ffffff" fill-opacity="1"><g transform="translate(253.014227, 176.528261)"><g/></g></g><g fill="#ffffff" fill-opacity="1"><g transform="translate(118.248607, 214.028259)"><g><path d="M 14.21875 -8.546875 L 1.375 -8.546875 L 1.375 -10.328125 L 14.21875 -10.328125 Z M 14.21875 -8.546875 "/></g></g></g><g fill="#ffffff" fill-opacity="1"><g transform="translate(133.82707, 214.028259)"><g/></g></g><g fill="#ffffff" fill-opacity="1"><g transform="translate(140.494066, 214.028259)"><g><path d="M 2.9375 0 L 2.9375 -19.421875 L 10.296875 -19.421875 C 11.492188 -19.421875 12.503906 -19.226562 13.328125 -18.84375 C 14.160156 -18.46875 14.785156 -17.925781 15.203125 -17.21875 C 15.628906 -16.519531 15.84375 -15.679688 15.84375 -14.703125 C 15.84375 -13.859375 15.613281 -13.09375 15.15625 -12.40625 C 14.707031 -11.726562 14.054688 -11.203125 13.203125 -10.828125 L 13.203125 -10.546875 C 14.492188 -10.222656 15.472656 -9.640625 16.140625 -8.796875 C 16.804688 -7.960938 17.140625 -6.90625 17.140625 -5.625 C 17.140625 -3.820312 16.609375 -2.429688 15.546875 -1.453125 C 14.492188 -0.484375 12.929688 0 10.859375 0 Z M 10.1875 -11.265625 C 11.257812 -11.265625 12.09375 -11.546875 12.6875 -12.109375 C 13.28125 -12.671875 13.578125 -13.441406 13.578125 -14.421875 C 13.578125 -15.460938 13.289062 -16.238281 12.71875 -16.75 C 12.144531 -17.269531 11.300781 -17.53125 10.1875 -17.53125 L 5.21875 -17.53125 L 5.21875 -11.265625 Z M 10.671875 -1.890625 C 13.441406 -1.890625 14.828125 -3.132812 14.828125 -5.625 C 14.828125 -8.125 13.441406 -9.375 10.671875 -9.375 L 5.21875 -9.375 L 5.21875 -1.890625 Z M 10.671875 -1.890625 "/></g></g></g><g fill="#ffffff" fill-opacity="1"><g transform="translate(159.180252, 214.028259)"><g><path d="M 8.40625 0.28125 C 7.019531 0.28125 5.816406 -0.0078125 4.796875 -0.59375 C 3.773438 -1.175781 2.988281 -2.035156 2.4375 -3.171875 C 1.882812 -4.316406 1.609375 -5.695312 1.609375 -7.3125 C 1.609375 -8.9375 1.882812 -10.316406 2.4375 -11.453125 C 2.988281 -12.597656 3.773438 -13.460938 4.796875 -14.046875 C 5.816406 -14.640625 7.019531 -14.9375 8.40625 -14.9375 C 9.789062 -14.9375 10.992188 -14.640625 12.015625 -14.046875 C 13.035156 -13.460938 13.820312 -12.597656 14.375 -11.453125 C 14.925781 -10.316406 15.203125 -8.9375 15.203125 -7.3125 C 15.203125 -5.695312 14.925781 -4.316406 14.375 -3.171875 C 13.820312 -2.035156 13.035156 -1.175781 12.015625 -0.59375 C 10.992188 -0.0078125 9.789062 0.28125 8.40625 0.28125 Z M 8.40625 -1.65625 C 9.863281 -1.65625 10.976562 -2.113281 11.75 -3.03125 C 12.53125 -3.957031 12.921875 -5.382812 12.921875 -7.3125 C 12.921875 -9.257812 12.53125 -10.691406 11.75 -11.609375 C 10.976562 -12.523438 9.863281 -12.984375 8.40625 -12.984375 C 6.945312 -12.984375 5.828125 -12.519531 5.046875 -11.59375 C 4.265625 -10.675781 3.875 -9.25 3.875 -7.3125 C 3.875 -5.382812 4.265625 -3.957031 5.046875 -3.03125 C 5.828125 -2.113281 6.945312 -1.65625 8.40625 -1.65625 Z M 8.40625 -1.65625 "/></g></g></g><g fill="#ffffff" fill-opacity="1"><g transform="translate(175.993831, 214.028259)"><g><path d="M 8.40625 0.28125 C 7.019531 0.28125 5.816406 -0.0078125 4.796875 -0.59375 C 3.773438 -1.175781 2.988281 -2.035156 2.4375 -3.171875 C 1.882812 -4.316406 1.609375 -5.695312 1.609375 -7.3125 C 1.609375 -8.9375 1.882812 -10.316406 2.4375 -11.453125 C 2.988281 -12.597656 3.773438 -13.460938 4.796875 -14.046875 C 5.816406 -14.640625 7.019531 -14.9375 8.40625 -14.9375 C 9.789062 -14.9375 10.992188 -14.640625 12.015625 -14.046875 C 13.035156 -13.460938 13.820312 -12.597656 14.375 -11.453125 C 14.925781 -10.316406 15.203125 -8.9375 15.203125 -7.3125 C 15.203125 -5.695312 14.925781 -4.316406 14.375 -3.171875 C 13.820312 -2.035156 13.035156 -1.175781 12.015625 -0.59375 C 10.992188 -0.0078125 9.789062 0.28125 8.40625 0.28125 Z M 8.40625 -1.65625 C 9.863281 -1.65625 10.976562 -2.113281 11.75 -3.03125 C 12.53125 -3.957031 12.921875 -5.382812 12.921875 -7.3125 C 12.921875 -9.257812 12.53125 -10.691406 11.75 -11.609375 C 10.976562 -12.523438 9.863281 -12.984375 8.40625 -12.984375 C 6.945312 -12.984375 5.828125 -12.519531 5.046875 -11.59375 C 4.265625 -10.675781 3.875 -9.25 3.875 -7.3125 C 3.875 -5.382812 4.265625 -3.957031 5.046875 -3.03125 C 5.828125 -2.113281 6.945312 -1.65625 8.40625 -1.65625 Z M 8.40625 -1.65625 "/></g></g></g><g fill="#ffffff" fill-opacity="1"><g transform="translate(192.807409, 214.028259)"><g><path d="M 2.546875 0 L 2.546875 -20.53125 L 4.71875 -20.53125 L 4.71875 -8.546875 L 5.078125 -8.546875 L 10.515625 -14.65625 L 12.796875 -14.65625 L 12.796875 -14.34375 L 6.984375 -7.765625 L 13.34375 -0.328125 L 13.34375 0 L 10.9375 0 L 5.078125 -6.78125 L 4.71875 -6.78125 L 4.71875 0 Z M 2.546875 0 "/></g></g></g><g fill="#ffffff" fill-opacity="1"><g transform="translate(206.433579, 214.028259)"><g/></g></g><g fill="#ffffff" fill-opacity="1"><g transform="translate(213.100575, 214.028259)"><g><path d="M 9.484375 0 L 7.21875 0 L 7.21875 -7.625 L 0.5 -19.421875 L 3 -19.421875 L 8.234375 -10.328125 L 8.5625 -10.328125 L 13.765625 -19.421875 L 16.203125 -19.421875 L 9.484375 -7.625 Z M 9.484375 0 "/></g></g></g><g fill="#ffffff" fill-opacity="1"><g transform="translate(229.794631, 214.028259)"><g><path d="M 8.40625 0.28125 C 7.019531 0.28125 5.816406 -0.0078125 4.796875 -0.59375 C 3.773438 -1.175781 2.988281 -2.035156 2.4375 -3.171875 C 1.882812 -4.316406 1.609375 -5.695312 1.609375 -7.3125 C 1.609375 -8.9375 1.882812 -10.316406 2.4375 -11.453125 C 2.988281 -12.597656 3.773438 -13.460938 4.796875 -14.046875 C 5.816406 -14.640625 7.019531 -14.9375 8.40625 -14.9375 C 9.789062 -14.9375 10.992188 -14.640625 12.015625 -14.046875 C 13.035156 -13.460938 13.820312 -12.597656 14.375 -11.453125 C 14.925781 -10.316406 15.203125 -8.9375 15.203125 -7.3125 C 15.203125 -5.695312 14.925781 -4.316406 14.375 -3.171875 C 13.820312 -2.035156 13.035156 -1.175781 12.015625 -0.59375 C 10.992188 -0.0078125 9.789062 0.28125 8.40625 0.28125 Z M 8.40625 -1.65625 C 9.863281 -1.65625 10.976562 -2.113281 11.75 -3.03125 C 12.53125 -3.957031 12.921875 -5.382812 12.921875 -7.3125 C 12.921875 -9.257812 12.53125 -10.691406 11.75 -11.609375 C 10.976562 -12.523438 9.863281 -12.984375 8.40625 -12.984375 C 6.945312 -12.984375 5.828125 -12.519531 5.046875 -11.59375 C 4.265625 -10.675781 3.875 -9.25 3.875 -7.3125 C 3.875 -5.382812 4.265625 -3.957031 5.046875 -3.03125 C 5.828125 -2.113281 6.945312 -1.65625 8.40625 -1.65625 Z M 8.40625 -1.65625 "/></g></g></g><g fill="#ffffff" fill-opacity="1"><g transform="translate(246.608209, 214.028259)"><g><path d="M 7.234375 0.28125 C 5.578125 0.28125 4.34375 -0.15625 3.53125 -1.03125 C 2.726562 -1.90625 2.328125 -3.191406 2.328125 -4.890625 L 2.328125 -14.65625 L 4.484375 -14.65625 L 4.484375 -4.9375 C 4.484375 -2.71875 5.53125 -1.609375 7.625 -1.609375 C 8.945312 -1.609375 9.992188 -2.039062 10.765625 -2.90625 C 11.535156 -3.769531 11.921875 -5.179688 11.921875 -7.140625 L 11.921875 -14.65625 L 14.09375 -14.65625 L 14.09375 0 L 12.046875 0 L 12.046875 -2.296875 L 11.765625 -2.359375 C 11.265625 -1.460938 10.660156 -0.796875 9.953125 -0.359375 C 9.253906 0.0664062 8.347656 0.28125 7.234375 0.28125 Z M 7.234375 0.28125 "/></g></g></g><g fill="#ffffff" fill-opacity="1"><g transform="translate(263.249142, 214.028259)"><g><path d="M 2.546875 0 L 2.546875 -14.65625 L 4.609375 -14.65625 L 4.609375 -12.359375 L 4.890625 -12.28125 C 5.566406 -13.945312 6.847656 -14.78125 8.734375 -14.78125 C 9.734375 -14.78125 10.484375 -14.597656 10.984375 -14.234375 L 10.421875 -12.40625 L 10.15625 -12.359375 C 9.613281 -12.628906 9.015625 -12.765625 8.359375 -12.765625 C 7.179688 -12.765625 6.28125 -12.328125 5.65625 -11.453125 C 5.03125 -10.578125 4.71875 -9.15625 4.71875 -7.1875 L 4.71875 0 Z M 2.546875 0 "/></g></g></g><g fill="#ffffff" fill-opacity="1"><g transform="translate(150.311105, 251.528256)"><g><path d="M 15.15625 -19.421875 L 15.15625 -17.484375 L 9.078125 -17.484375 L 9.078125 0 L 6.796875 0 L 6.796875 -17.484375 L 0.71875 -17.484375 L 0.71875 -19.421875 Z M 15.15625 -19.421875 "/></g></g></g><g fill="#ffffff" fill-opacity="1"><g transform="translate(166.168461, 251.528256)"><g><path d="M 3.640625 -17.484375 C 3.179688 -17.484375 2.804688 -17.625 2.515625 -17.90625 C 2.222656 -18.195312 2.078125 -18.5625 2.078125 -19 C 2.078125 -19.445312 2.222656 -19.8125 2.515625 -20.09375 C 2.804688 -20.382812 3.179688 -20.53125 3.640625 -20.53125 C 4.097656 -20.53125 4.46875 -20.382812 4.75 -20.09375 C 5.039062 -19.8125 5.1875 -19.445312 5.1875 -19 C 5.1875 -18.5625 5.039062 -18.195312 4.75 -17.90625 C 4.46875 -17.625 4.097656 -17.484375 3.640625 -17.484375 Z M 2.546875 0 L 2.546875 -14.65625 L 4.71875 -14.65625 L 4.71875 0 Z M 2.546875 0 "/></g></g></g><g fill="#ffffff" fill-opacity="1"><g transform="translate(173.433101, 251.528256)"><g><path d="M 8.40625 0.28125 C 7.113281 0.28125 5.953125 -0.0078125 4.921875 -0.59375 C 3.898438 -1.1875 3.09375 -2.054688 2.5 -3.203125 C 1.90625 -4.347656 1.609375 -5.71875 1.609375 -7.3125 C 1.609375 -8.914062 1.90625 -10.289062 2.5 -11.4375 C 3.09375 -12.582031 3.898438 -13.453125 4.921875 -14.046875 C 5.953125 -14.640625 7.113281 -14.9375 8.40625 -14.9375 C 9.957031 -14.9375 11.191406 -14.640625 12.109375 -14.046875 C 13.023438 -13.460938 13.6875 -12.6875 14.09375 -11.71875 L 12.625 -10.65625 L 12.359375 -10.65625 C 11.953125 -11.457031 11.4375 -12.046875 10.8125 -12.421875 C 10.1875 -12.796875 9.382812 -12.984375 8.40625 -12.984375 C 7.5 -12.984375 6.703125 -12.769531 6.015625 -12.34375 C 5.335938 -11.925781 4.8125 -11.289062 4.4375 -10.4375 C 4.0625 -9.59375 3.875 -8.550781 3.875 -7.3125 C 3.875 -6.09375 4.0625 -5.0625 4.4375 -4.21875 C 4.820312 -3.375 5.351562 -2.734375 6.03125 -2.296875 C 6.707031 -1.867188 7.5 -1.65625 8.40625 -1.65625 C 9.425781 -1.65625 10.269531 -1.882812 10.9375 -2.34375 C 11.601562 -2.8125 12.128906 -3.539062 12.515625 -4.53125 L 12.796875 -4.53125 L 14.21875 -3.6875 C 13.832031 -2.457031 13.148438 -1.488281 12.171875 -0.78125 C 11.191406 -0.0703125 9.9375 0.28125 8.40625 0.28125 Z M 8.40625 0.28125 "/></g></g></g><g fill="#ffffff" fill-opacity="1"><g transform="translate(188.533453, 251.528256)"><g><path d="M 2.546875 0 L 2.546875 -20.53125 L 4.71875 -20.53125 L 4.71875 -8.546875 L 5.078125 -8.546875 L 10.515625 -14.65625 L 12.796875 -14.65625 L 12.796875 -14.34375 L 6.984375 -7.765625 L 13.34375 -0.328125 L 13.34375 0 L 10.9375 0 L 5.078125 -6.78125 L 4.71875 -6.78125 L 4.71875 0 Z M 2.546875 0 "/></g></g></g><g fill="#ffffff" fill-opacity="1"><g transform="translate(202.159623, 251.528256)"><g><path d="M 13.953125 -6.828125 L 3.890625 -6.828125 C 3.953125 -5.046875 4.378906 -3.738281 5.171875 -2.90625 C 5.960938 -2.070312 7.050781 -1.65625 8.4375 -1.65625 C 9.476562 -1.65625 10.316406 -1.84375 10.953125 -2.21875 C 11.597656 -2.59375 12.097656 -3.175781 12.453125 -3.96875 L 12.734375 -3.96875 L 14.140625 -3.140625 C 13.722656 -2.078125 13.046875 -1.238281 12.109375 -0.625 C 11.171875 -0.0195312 9.945312 0.28125 8.4375 0.28125 C 7.019531 0.28125 5.800781 0.00390625 4.78125 -0.546875 C 3.757812 -1.109375 2.972656 -1.957031 2.421875 -3.09375 C 1.878906 -4.226562 1.609375 -5.632812 1.609375 -7.3125 C 1.609375 -8.976562 1.894531 -10.382812 2.46875 -11.53125 C 3.050781 -12.675781 3.84375 -13.53125 4.84375 -14.09375 C 5.851562 -14.65625 7.003906 -14.9375 8.296875 -14.9375 C 10.179688 -14.9375 11.648438 -14.40625 12.703125 -13.34375 C 13.753906 -12.28125 14.285156 -10.710938 14.296875 -8.640625 C 14.296875 -7.816406 14.273438 -7.265625 14.234375 -6.984375 Z M 12.15625 -8.640625 C 12.113281 -10.191406 11.765625 -11.320312 11.109375 -12.03125 C 10.460938 -12.738281 9.523438 -13.09375 8.296875 -13.09375 C 7.015625 -13.09375 6.007812 -12.734375 5.28125 -12.015625 C 4.550781 -11.304688 4.101562 -10.179688 3.9375 -8.640625 Z M 12.15625 -8.640625 "/></g></g></g><g fill="#ffffff" fill-opacity="1"><g transform="translate(217.777924, 251.528256)"><g><path d="M 9.90625 -2.328125 L 10.59375 -0.765625 C 10.25 -0.421875 9.796875 -0.160156 9.234375 0.015625 C 8.671875 0.191406 8.0625 0.28125 7.40625 0.28125 C 4.613281 0.28125 3.21875 -1.132812 3.21875 -3.96875 L 3.21875 -12.890625 L 0.671875 -12.890625 L 0.671875 -14.671875 L 3.21875 -14.671875 L 3.21875 -17.765625 L 5.375 -18.125 L 5.375 -14.671875 L 10.09375 -14.671875 L 10.09375 -12.890625 L 5.375 -12.890625 L 5.375 -4.1875 C 5.375 -2.5 6.109375 -1.65625 7.578125 -1.65625 C 8.367188 -1.65625 9.050781 -1.878906 9.625 -2.328125 Z M 9.90625 -2.328125 "/></g></g></g><g fill="#ffffff" fill-opacity="1"><g transform="translate(228.933853, 251.528256)"><g><path d="M 6.6875 0.28125 C 5.757812 0.28125 4.90625 0.160156 4.125 -0.078125 C 3.34375 -0.328125 2.679688 -0.664062 2.140625 -1.09375 C 1.597656 -1.519531 1.21875 -2 1 -2.53125 L 2.265625 -3.859375 L 2.546875 -3.859375 C 3.023438 -3.128906 3.597656 -2.578125 4.265625 -2.203125 C 4.941406 -1.835938 5.75 -1.65625 6.6875 -1.65625 C 7.757812 -1.65625 8.578125 -1.863281 9.140625 -2.28125 C 9.703125 -2.707031 9.984375 -3.296875 9.984375 -4.046875 C 9.984375 -4.628906 9.8125 -5.109375 9.46875 -5.484375 C 9.132812 -5.859375 8.585938 -6.140625 7.828125 -6.328125 L 5.359375 -6.9375 C 4.035156 -7.25 3.066406 -7.75 2.453125 -8.4375 C 1.847656 -9.132812 1.546875 -9.992188 1.546875 -11.015625 C 1.546875 -11.804688 1.75 -12.492188 2.15625 -13.078125 C 2.570312 -13.671875 3.160156 -14.128906 3.921875 -14.453125 C 4.691406 -14.773438 5.601562 -14.9375 6.65625 -14.9375 C 8 -14.9375 9.054688 -14.742188 9.828125 -14.359375 C 10.609375 -13.984375 11.21875 -13.460938 11.65625 -12.796875 L 10.421875 -11.59375 L 10.15625 -11.59375 C 9.6875 -12.132812 9.175781 -12.523438 8.625 -12.765625 C 8.070312 -13.003906 7.414062 -13.125 6.65625 -13.125 C 5.6875 -13.125 4.945312 -12.953125 4.4375 -12.609375 C 3.925781 -12.265625 3.671875 -11.765625 3.671875 -11.109375 C 3.671875 -10.515625 3.847656 -10.035156 4.203125 -9.671875 C 4.566406 -9.304688 5.203125 -9.015625 6.109375 -8.796875 L 8.546875 -8.203125 C 9.816406 -7.898438 10.734375 -7.398438 11.296875 -6.703125 C 11.867188 -6.003906 12.15625 -5.128906 12.15625 -4.078125 C 12.15625 -3.222656 11.953125 -2.46875 11.546875 -1.8125 C 11.140625 -1.15625 10.523438 -0.640625 9.703125 -0.265625 C 8.878906 0.0976562 7.875 0.28125 6.6875 0.28125 Z M 6.6875 0.28125 "/></g></g></g><g fill="#ffffff" fill-opacity="1"><g transform="translate(162.768135, 289.028254)"><g><path d="M 5.171875 0 L 2.9375 0 L 2.9375 -19.421875 L 5.734375 -19.421875 L 15.203125 -4.578125 L 15.546875 -4.640625 L 15.546875 -19.421875 L 17.765625 -19.421875 L 17.765625 0 L 15.375 0 L 5.5 -15.875 L 5.171875 -15.8125 Z M 5.171875 0 "/></g></g></g><g fill="#ffffff" fill-opacity="1"><g transform="translate(183.473013, 289.028254)"><g><path d="M 8.40625 0.28125 C 7.019531 0.28125 5.816406 -0.0078125 4.796875 -0.59375 C 3.773438 -1.175781 2.988281 -2.035156 2.4375 -3.171875 C 1.882812 -4.316406 1.609375 -5.695312 1.609375 -7.3125 C 1.609375 -8.9375 1.882812 -10.316406 2.4375 -11.453125 C 2.988281 -12.597656 3.773438 -13.460938 4.796875 -14.046875 C 5.816406 -14.640625 7.019531 -14.9375 8.40625 -14.9375 C 9.789062 -14.9375 10.992188 -14.640625 12.015625 -14.046875 C 13.035156 -13.460938 13.820312 -12.597656 14.375 -11.453125 C 14.925781 -10.316406 15.203125 -8.9375 15.203125 -7.3125 C 15.203125 -5.695312 14.925781 -4.316406 14.375 -3.171875 C 13.820312 -2.035156 13.035156 -1.175781 12.015625 -0.59375 C 10.992188 -0.0078125 9.789062 0.28125 8.40625 0.28125 Z M 8.40625 -1.65625 C 9.863281 -1.65625 10.976562 -2.113281 11.75 -3.03125 C 12.53125 -3.957031 12.921875 -5.382812 12.921875 -7.3125 C 12.921875 -9.257812 12.53125 -10.691406 11.75 -11.609375 C 10.976562 -12.523438 9.863281 -12.984375 8.40625 -12.984375 C 6.945312 -12.984375 5.828125 -12.519531 5.046875 -11.59375 C 4.265625 -10.675781 3.875 -9.25 3.875 -7.3125 C 3.875 -5.382812 4.265625 -3.957031 5.046875 -3.03125 C 5.828125 -2.113281 6.945312 -1.65625 8.40625 -1.65625 Z M 8.40625 -1.65625 "/></g></g></g><g fill="#ffffff" fill-opacity="1"><g transform="translate(200.286592, 289.028254)"><g><path d="M 7.265625 0 L 4.53125 0 L 0.9375 -14.65625 L 3.078125 -14.65625 L 5.859375 -2.53125 L 6.140625 -2.53125 L 9.546875 -14.65625 L 11.828125 -14.65625 L 15.34375 -2.53125 L 15.625 -2.53125 L 18.34375 -14.65625 L 20.421875 -14.65625 L 16.875 0 L 14.125 0 L 10.765625 -11.375 L 10.5 -11.375 Z M 7.265625 0 "/></g></g></g><g fill="#ffffff" fill-opacity="1"><g transform="translate(221.642227, 289.028254)"><g><path d="M 5.296875 -6.4375 L 3.078125 -6.4375 L 3.078125 -19.421875 L 5.296875 -19.421875 Z M 4.1875 0.140625 C 3.675781 0.140625 3.273438 0 2.984375 -0.28125 C 2.691406 -0.570312 2.546875 -0.953125 2.546875 -1.421875 C 2.546875 -1.878906 2.691406 -2.253906 2.984375 -2.546875 C 3.273438 -2.847656 3.675781 -3 4.1875 -3 C 4.695312 -3 5.097656 -2.859375 5.390625 -2.578125 C 5.679688 -2.296875 5.828125 -1.921875 5.828125 -1.453125 C 5.828125 -0.984375 5.675781 -0.597656 5.375 -0.296875 C 5.082031 -0.00390625 4.6875 0.140625 4.1875 0.140625 Z M 4.1875 0.140625 "/></g></g></g></svg>